PathFileType	4	(X/Y/Z)	C:/Users/opensim2020/Desktop/walking_exp_matlab/subject02_walking16_run.trc	
DataRate	CameraRate	NumFrames	NumMarkers	Units	OrigDataRate	OrigDataStartFrame	OrigNumFrames	
100.00	100.00	8	51	mm	100.00	199	124	
Frame#	Time	RTOE			LSHO			LELB			RELB			RFIN			LTHI			LKNE			RWRB			RUPA			LTIB			RASI			LANK			LTOE			RSHO			RWRA			RFRM			LASI			STRN			LFHD			RTHI			RFHD			LWRB			LFIN			LUPA			RKNE			RBHD			LFRM			C7			LWRA			RTIB			CLAV			LHEE			RANK			LBHD			RBAK			RHEE			T10			LPSI			RPSI			*39			*40			*41			*42			*43			*44			*45			*46			*47			*48			*49			*50			
		X1	Y1	Z1	X2	Y2	Z2	X3	Y3	Z3	X4	Y4	Z4	X5	Y5	Z5	X6	Y6	Z6	X7	Y7	Z7	X8	Y8	Z8	X9	Y9	Z9	X10	Y10	Z10	X11	Y11	Z11	X12	Y12	Z12	X13	Y13	Z13	X14	Y14	Z14	X15	Y15	Z15	X16	Y16	Z16	X17	Y17	Z17	X18	Y18	Z18	X19	Y19	Z19	X20	Y20	Z20	X21	Y21	Z21	X22	Y22	Z22	X23	Y23	Z23	X24	Y24	Z24	X25	Y25	Z25	X26	Y26	Z26	X27	Y27	Z27	X28	Y28	Z28	X29	Y29	Z29	X30	Y30	Z30	X31	Y31	Z31	X32	Y32	Z32	X33	Y33	Z33	X34	Y34	Z34	X35	Y35	Z35	X36	Y36	Z36	X37	Y37	Z37	X38	Y38	Z38	X39	Y39	Z39	X40	Y40	Z40	X41	Y41	Z41	X42	Y42	Z42	X43	Y43	Z43	X44	Y44	Z44	X45	Y45	Z45	X46	Y46	Z46	X47	Y47	Z47	X48	Y48	Z48	X49	Y49	Z49	X50	Y50	Z50	X51	Y51	Z51	

47	0.460	168.75102	-139.91980	108.54760	-171.06177	-412.21320	1486.64124	-211.68909	-217.46155	1227.18335	315.32428	-720.68304	1369.56677	306.00085	-581.03308	1112.49805	-148.57782	-644.03571	678.24597	-112.83339	-736.52771	497.77591	306.02396	-645.60590	1125.55408	246.50513	-624.63147	1461.17371	-105.30377	-876.79700	363.65274	129.25511	-432.42416	973.36926	-70.39005	-986.84290	169.31499	-53.12948	-908.53247	27.63153	152.22635	-478.90549	1512.63647	268.92337	-611.09088	1153.68335	316.44885	-681.99683	1250.61169	-120.57854	-465.22870	955.17365	12.90570	-363.04190	1257.21106	-64.41452	-363.24631	1734.61951	212.00117	-410.09070	704.67041	79.35437	-372.49237	1715.10645	-6.43331	-223.75934	1383.82275	29.65985	-247.30769	1436.10767	-228.61111	-307.97794	1333.22205	183.72667	-311.24344	525.81555	56.22568	-501.95761	1618.54077	-97.27537	-208.66144	1303.90515	-32.24680	-519.02814	1514.80945	-27.14159	-274.53342	1397.22083	210.40057	-309.69421	336.10898	-5.34434	-386.23923	1437.59033	-16.88084	-1016.14685	179.45857	191.69978	-297.45236	138.38394	-83.91641	-480.13519	1641.58752	29.35165	-607.41687	1365.53955	144.16693	-331.15872	73.33770	-7.38857	-613.84729	1263.67786	-22.36886	-646.80121	1039.20203	90.47235	-641.59033	1050.62402				-3355.31738	2846.63867	1034.94458																									16.05159	-481.36536	1782.59009			 
48	0.470	159.35876	-66.27205	125.41013	-164.59633	-372.23758	1491.88538	-219.89400	-172.87067	1239.67651	311.92276	-689.56409	1375.19360	310.48779	-550.01794	1118.07544	-148.60228	-606.22791	686.08130	-110.78983	-707.38281	510.05252	306.39090	-614.30804	1130.33643	246.28552	-591.40735	1466.86865	-102.22795	-851.12378	378.55118	129.28091	-389.51083	979.43945	-75.13732	-959.58612	183.06686	-54.12808	-905.27930	29.86541	154.66919	-444.31543	1517.47998	272.06458	-577.77924	1159.37769	315.28271	-650.76379	1256.64307	-119.42112	-420.70615	961.50787	18.52818	-323.80746	1263.24951	-59.83939	-324.88159	1737.39783	213.60144	-372.45294	707.04065	83.91682	-334.32913	1718.40417	-6.21261	-187.64427	1385.69458	32.49133	-214.04877	1435.12659	-230.08894	-265.66861	1344.19751	185.84541	-272.66696	525.36047	61.20877	-464.69299	1623.21350	-101.78798	-168.45274	1310.95435	-29.76851	-480.75964	1519.52576	-26.65431	-238.80998	1397.51953	210.81784	-257.25226	336.14224	0.10451	-349.40649	1443.30322	-20.26850	-983.96320	198.82507	189.85031	-226.21855	140.35036	-79.00227	-442.77811	1645.65588	28.08465	-568.29980	1369.12158	143.01431	-255.40865	72.84850	-9.46129	-574.93152	1266.26733	-21.43324	-603.31152	1043.26941	91.95798	-599.55066	1053.55334																															20.39180	-442.37180	1787.03320			 
49	0.480	152.34950	-0.77176	140.04448	-158.37288	-332.79401	1496.08154	-228.28616	-131.02170	1249.97656	308.94006	-657.26031	1378.03821	314.82806	-516.93500	1120.89233	-148.36707	-568.35559	691.83008	-108.57084	-674.71228	520.16736	307.00354	-580.85211	1132.51514	245.65137	-558.14758	1470.43176	-100.01991	-821.72302	391.54865	129.26245	-347.34109	983.72260	-77.55103	-933.46033	198.74847	-55.52820	-893.55524	38.75976	156.68900	-410.17993	1521.30078	275.08087	-542.62256	1161.98853	314.49411	-617.86987	1259.51563	-118.08070	-375.91049	967.44843	24.56171	-284.50037	1268.47522	-55.53483	-286.53461	1738.83191	216.08420	-333.78751	709.21680	88.34947	-296.00284	1720.66272	-5.15390	-149.83044	1382.03503	37.18521	-177.83203	1427.87988	-233.04147	-225.99492	1353.21704	187.76875	-235.14915	523.48663	66.38104	-427.23328	1627.02795	-106.12846	-128.60112	1314.29675	-27.02902	-442.70673	1523.31494	-24.95377	-201.19173	1393.53308	210.44789	-208.29980	335.95654	5.31846	-312.32141	1447.79199	-24.03078	-956.36914	216.94167	188.02711	-161.94653	143.31261	-73.94025	-405.48969	1648.42358	27.35169	-529.24567	1371.96008	141.05237	-185.37234	74.08781	-11.09099	-535.13757	1267.52161	-20.48161	-559.81183	1047.85291	93.35725	-557.11603	1056.21533				-3356.94604	2846.21924	1034.29333																									24.62409	-403.13858	1790.53027			 
50	0.490	149.98402	56.73820	149.13460	-152.64392	-293.94189	1499.70105	-236.93956	-91.98602	1257.58008	306.67410	-623.97198	1377.81873	318.92114	-481.42084	1121.08398	-147.65054	-529.79077	696.24359	-107.32851	-636.57727	525.61810	308.08319	-545.08704	1132.27893	245.44194	-524.63123	1472.39526	-98.18632	-788.22003	402.79691	129.49223	-306.15247	986.53326	-76.66116	-907.84772	214.84880	-59.37376	-876.92200	50.63217	158.40398	-376.15457	1523.70862	278.53918	-504.87354	1162.41858	314.54709	-583.60370	1259.57983	-116.20338	-331.35727	972.53906	30.60520	-245.44716	1272.73059	-51.33843	-248.29767	1739.19824	218.84567	-293.89975	709.91010	92.64906	-257.62457	1722.05872	-3.55416	-109.70144	1372.32043	43.25803	-137.49625	1414.17896	-236.98465	-188.48347	1360.52661	189.02367	-198.11551	520.80609	71.53453	-389.79654	1629.65967	-110.34659	-89.06876	1313.23950	-24.06056	-404.96558	1525.61926	-22.04251	-161.02080	1385.22034	209.58362	-162.78828	335.72824	10.43424	-275.24078	1451.15759	-23.40214	-930.61139	233.52391	185.13649	-105.49527	145.88487	-68.92138	-368.26611	1650.08936	27.43449	-490.50281	1373.67651	136.61430	-125.98745	77.78989	-11.96577	-495.15973	1267.79272	-19.82736	-516.34442	1052.48950	94.41698	-514.68365	1058.77515				-3356.80664	2846.17456	1034.13586																									28.81719	-363.94705	1792.92700			 
51	0.500	152.43178	105.32368	152.72429	-147.36932	-255.60808	1503.00012	-245.52872	-55.56924	1262.55334	305.11414	-589.88947	1374.43726	323.15149	-443.89240	1118.84290	-146.22104	-489.92950	699.08685	-106.81574	-592.64795	526.40881	309.88351	-507.06888	1129.87219	244.69859	-491.06638	1471.65125	-98.65444	-750.33258	412.10483	130.15205	-265.75198	988.41949	-73.55025	-880.50195	231.39821	-63.69217	-857.58710	64.39188	160.53084	-341.95346	1524.13184	282.41562	-466.34085	1160.79517	315.00446	-547.90558	1256.53259	-113.46558	-287.47122	976.36090	36.34172	-206.68214	1275.96045	-47.24197	-210.17888	1739.03064	222.43732	-252.97391	709.07446	96.32642	-219.53894	1722.74365	-1.79313	-67.32319	1356.30066	49.70375	-93.27515	1393.65088	-241.56244	-152.44249	1366.20825	189.66245	-160.35669	517.98730	76.52711	-352.35309	1631.15308	-114.27943	-49.82680	1307.02625	-20.76930	-367.36832	1526.31067	-17.83537	-118.30695	1372.12207	207.41423	-120.53477	335.27463	15.42143	-237.62520	1453.21313	-19.71502	-902.61292	250.22330	181.38953	-58.36578	147.10060	-64.05498	-331.02161	1650.74146	28.39987	-452.09769	1374.20569	130.03885	-75.42604	79.82684	-11.91752	-455.56317	1267.38135	-19.84825	-473.32816	1056.47949	95.43874	-472.77591	1060.83228				-3356.78589	2846.08789	1034.34570																									32.88540	-324.95248	1794.06311			 
52	0.510	156.56239	143.90761	152.48666	-142.73856	-217.58040	1505.71558	-253.85916	-21.36860	1265.00781	304.13751	-554.92523	1368.20251	327.00220	-404.04337	1114.44165	-144.13560	-445.99890	698.93414	-106.29613	-545.78296	524.07819	312.08862	-467.02969	1125.31873	244.09363	-457.19492	1468.23914	-99.28236	-709.63281	418.86789	131.53191	-225.38837	989.57697	-69.46821	-850.16028	248.26651	-67.08158	-836.14966	80.90671	163.57796	-307.03302	1522.47546	285.62433	-425.96188	1156.78101	315.54480	-510.79434	1251.09851	-109.87557	-244.14211	978.57306	39.78849	-169.82069	1277.60474	-43.12671	-172.25775	1738.43555	227.23958	-211.12106	706.97491	100.79309	-181.42514	1722.80640	-1.16824	-23.31107	1334.51636	55.28790	-46.36651	1366.67505	-245.86942	-117.84680	1370.21777	189.35605	-120.66528	516.30579	81.35337	-314.66138	1631.66748	-118.65086	-10.52568	1295.73645	-17.02064	-329.88440	1525.57983	-14.09709	-74.03146	1354.43994	204.32430	-81.66228	334.00430	20.46273	-199.45732	1453.90991	-13.73991	-870.71124	266.48804	176.21852	-20.84514	145.73778	-59.53965	-293.64117	1650.63977	29.83348	-414.49344	1373.38696	122.61571	-35.57627	79.29913	-11.18580	-416.32877	1266.60437	-20.48981	-431.09601	1059.11292	96.33743	-431.71344	1062.46130				-3356.85498	2846.06812	1034.43225																									36.96897	-286.63324	1794.39832			 
53	0.520	160.32164	173.20515	145.96054	-138.79817	-179.97633	1507.27747	-262.12308	10.93167	1265.17505	304.06339	-518.70831	1359.41626	330.62064	-362.18005	1108.43750	-142.16626	-396.37073	695.17285	-105.64697	-496.43027	519.43524	314.42056	-425.14020	1118.48108	244.05922	-422.38531	1461.67017	-98.58175	-666.22565	423.14322	133.17055	-186.72903	989.38269	-64.77173	-816.24585	264.78796	-70.40292	-812.53607	98.67630	168.12769	-270.98969	1519.28064	289.17346	-384.47403	1150.93481	316.88959	-472.19049	1243.08411	-105.78886	-200.94440	978.95380	44.34030	-131.58789	1278.05847	-39.06186	-134.53484	1737.43274	232.74477	-168.99231	703.51660	104.99149	-143.56815	1722.27637	-2.93147	21.57882	1307.39807	57.95153	2.42583	1333.66028	-250.41833	-84.69608	1373.10669	188.37560	-79.12567	515.82141	86.00902	-276.89172	1631.03528	-124.38392	28.36862	1280.08301	-12.70078	-292.36612	1523.74561	-11.39411	-27.99777	1331.59204	200.75351	-46.59190	331.68649	25.05272	-161.29146	1453.56323	-7.71189	-835.00854	283.17764	170.30533	8.16191	142.19511	-54.97677	-255.99348	1649.60779	31.74980	-376.63544	1371.78967	114.15443	-6.37316	77.13996	-9.98866	-377.41153	1265.36975	-21.47056	-389.44247	1060.34753	96.90985	-391.61972	1063.46082				-3356.88159	2845.98047	1034.59863																									41.04939	-248.89923	1793.64526			 
54	0.530	162.19563	194.42813	133.47255	-135.45413	-142.48679	1507.66003	-270.61072	41.76363	1263.63904	304.37100	-481.17581	1347.96826	334.15314	-318.60553	1101.07520	-140.24757	-345.09515	688.49133	-105.05891	-444.48309	512.75537	316.75140	-381.42169	1109.51904	245.44719	-386.34186	1452.08679	-96.66274	-619.21313	425.72772	135.98788	-147.65099	988.46674	-60.12214	-778.57721	281.04221	-73.05148	-786.39368	116.50509	173.58362	-234.20117	1514.68359	291.89413	-340.97861	1142.79114	318.22809	-431.79187	1232.71692	-101.72114	-157.69276	978.08685	48.87127	-93.30114	1277.54138	-34.83974	-97.36595	1735.63538	238.22505	-127.63908	698.48145	109.21317	-105.89980	1721.06970	-8.46262	66.53304	1276.22778	56.17030	51.63702	1295.73291	-254.08638	-52.91193	1374.94617	187.41577	-37.04075	514.96777	90.53164	-238.94212	1629.34399	-132.32718	66.41238	1261.04492	-7.83625	-254.71880	1521.11377	-11.39403	18.14527	1304.06714	196.95911	-15.00390	328.40659	29.62188	-123.07168	1452.24561	-1.52860	-795.05096	299.50598	163.77454	29.91003	137.04260	-50.31981	-218.14964	1647.50427	33.85602	-339.18710	1368.81946	106.13099	13.88464	73.87933	-8.31887	-338.76276	1263.58081	-22.23969	-348.24271	1060.43042	96.98366	-352.26401	1063.38098				-3355.36011	2846.60693	1034.34326																									45.11203	-211.67740	1791.85596			 
